<svg width="100" height="100" viewBox="0 0 100 100" fill="none" xmlns="http://www.w3.org/2000/svg">
<g clip-path="url(#clip0_9_24)">
<path d="M43.5781 99.9024L34.0469 96.4453C33.0469 96.0938 32.4844 94.7852 32.7656 93.5352L54.0937 1.69922C54.375 0.449221 55.4219 -0.253904 56.4219 0.0976588L65.9531 3.55469C66.9531 3.90625 67.5156 5.21485 67.2343 6.46485L45.9062 98.3008C45.6094 99.5508 44.5781 100.273 43.5781 99.9024ZM25.7656 77.9883L32.5625 68.9258C33.2812 67.9688 33.2344 66.4453 32.4375 65.5664L18.2812 50L32.4375 34.4336C33.2344 33.5547 33.2969 32.0313 32.5625 31.0742L25.7656 22.0117C25.0625 21.0742 23.875 21.0156 23.1094 21.9141L0.59375 48.2813C-0.203125 49.1992 -0.203125 50.7813 0.59375 51.6992L23.1094 78.0859C23.875 78.9844 25.0625 78.9453 25.7656 77.9883ZM76.8906 78.1055L99.4062 51.7188C100.203 50.8008 100.203 49.2188 99.4062 48.3008L76.8906 21.8945C76.1406 21.0156 74.9531 21.0547 74.2343 21.9922L67.4375 31.0547C66.7187 32.0117 66.7656 33.5352 67.5625 34.4141L81.7187 50L67.5625 65.5664C66.7656 66.4453 66.7031 67.9688 67.4375 68.9258L74.2343 77.9883C74.9375 78.9453 76.125 78.9844 76.8906 78.1055Z" fill="white"/>
</g>
<defs>
<clipPath id="clip0_9_24">
<rect width="100" height="100" fill="white"/>
</clipPath>
</defs>
</svg>
