<svg width="100" height="100" viewBox="0 0 100 100" fill="none" xmlns="http://www.w3.org/2000/svg">
<g clip-path="url(#clip0_8_16)">
<path d="M26.6797 27.1074C24.7181 27.6619 22.9218 28.6876 21.4475 30.0953C19.9731 31.5029 18.8653 33.2498 18.2207 35.1836L0 89.8438L2.86914 92.7129L32.1875 63.3945C31.6035 62.1719 31.25 60.8203 31.25 59.375C31.25 54.1973 35.4473 50 40.625 50C45.8027 50 50 54.1973 50 59.375C50 64.5527 45.8027 68.75 40.625 68.75C39.1797 68.75 37.8281 68.3965 36.6055 67.8125L7.28711 97.1309L10.1562 100L64.8164 81.7793C66.7502 81.1347 68.4971 80.0269 69.9047 78.5525C71.3124 77.0782 72.3381 75.2819 72.8926 73.3203L81.25 43.75L56.25 18.75L26.6797 27.1074ZM97.2539 14.4863L85.5137 2.74609C81.8516 -0.916016 75.9121 -0.916016 72.25 2.74609L61.2051 13.791L86.209 38.7949L97.2539 27.75C100.916 24.0879 100.916 18.1504 97.2539 14.4863Z" fill="white"/>
</g>
<defs>
<clipPath id="clip0_8_16">
<rect width="100" height="100" fill="white"/>
</clipPath>
</defs>
</svg>
