<svg width="30" height="30" viewBox="0 0 30 30" fill="none" xmlns="http://www.w3.org/2000/svg">
<path d="M13.7953 0V8.14621C13.0925 7.92353 11.5756 7.89636 10.8282 7.89636C5.20515 7.89636 0 9.95889 0 15.7927C0 22.7731 7.05014 23.6891 11.7697 23.6891C13.6333 23.6891 17.8465 23.5456 19.8721 23.0876V0H13.7953ZM23.9232 0V4.73782H30V0H23.9232ZM23.9232 7.89636V21.6379C23.9232 24.0321 22.0557 26.5241 17.8465 27.955L23.6384 30C29.5247 28.4207 30 23.2171 30 21.6379V7.89636H23.9232ZM11.7104 11.9247C12.3586 11.9247 13.0864 12.0174 13.7953 12.1437V19.5713C13.0864 19.6976 12.3586 19.7933 11.7104 19.7933C9.05689 19.7933 6.48424 19.1408 6.48424 15.7927C6.48424 12.4447 9.05689 11.9247 11.7104 11.9247Z" fill="#199667"/>
</svg>
