<svg width="20" height="26" viewBox="0 0 20 26" fill="none" xmlns="http://www.w3.org/2000/svg">
<path d="M9.99999 7.78123C9.63197 7.78932 9.26669 7.87154 8.91526 8.02537C9.07782 8.42738 9.16437 8.88129 9.16665 9.34373C9.16665 9.70282 9.11636 10.0584 9.01864 10.3901C8.92092 10.7219 8.7777 11.0233 8.59714 11.2772C8.41658 11.5311 8.20222 11.7326 7.96631 11.87C7.7304 12.0074 7.47755 12.0781 7.22221 12.0781C6.89336 12.0749 6.57058 11.9532 6.28471 11.7246C6.05916 12.8246 6.08545 13.9965 6.35984 15.0743C6.63424 16.1521 7.14283 17.0812 7.81358 17.73C8.48433 18.3787 9.28324 18.7143 10.0971 18.6891C10.911 18.6638 11.6986 18.2792 12.3484 17.5895C12.9982 16.8998 13.4772 15.9401 13.7176 14.8464C13.9579 13.7526 13.9475 12.5802 13.6877 11.4952C13.428 10.4103 12.932 9.46775 12.2702 8.80118C11.6083 8.13461 10.8141 7.77778 9.99999 7.78123ZM19.8792 12.5371C17.9962 7.37059 14.2684 3.87498 9.99999 3.87498C5.73158 3.87498 2.00276 7.37303 0.120814 12.5376C0.0413845 12.7585 0 13.0026 0 13.2502C0 13.4978 0.0413845 13.7419 0.120814 13.9629C2.0038 19.1294 5.73158 22.625 9.99999 22.625C14.2684 22.625 17.9972 19.1269 19.8792 13.9624C19.9586 13.7414 20 13.4973 20 13.2497C20 13.0022 19.9586 12.758 19.8792 12.5371ZM9.99999 20.2812C6.57464 20.2812 3.43436 17.5957 1.73852 13.25C3.43436 8.90428 6.57429 6.21873 9.99999 6.21873C13.4257 6.21873 16.5656 8.90428 18.2614 13.25C16.566 17.5957 13.4257 20.2812 9.99999 20.2812Z" fill="white"/>
</svg>
