<svg width="100" height="100" viewBox="0 0 100 100" fill="none" xmlns="http://www.w3.org/2000/svg">
<g clip-path="url(#clip0_8_18)">
<path d="M27.2898 88.7402C27.2926 89.9687 27.821 91.1719 28.8125 92.1953L33.6676 97.2129C34.497 98.0706 35.6219 98.7741 36.9424 99.2607C38.2628 99.7473 39.7377 100.002 41.2358 100.002H58.767C60.2652 100.002 61.7401 99.7473 63.0605 99.2607C64.3809 98.7741 65.5058 98.0706 66.3352 97.2129L71.1903 92.1953C72.1814 91.1717 72.7111 89.9698 72.7131 88.7402L72.7244 81.25H27.2756L27.2898 88.7402ZM0 34.375C0 43.041 4.6733 50.9473 12.375 56.9883C17.0682 60.6699 24.4091 68.3613 27.2074 74.8496C27.2187 74.9004 27.2273 74.9512 27.2386 75.0019H72.7614C72.7727 74.9512 72.7812 74.9023 72.7926 74.8496C75.5909 68.3613 82.9318 60.6699 87.625 56.9883C95.3267 50.9473 100 43.041 100 34.375C100 15.3535 77.5312 -0.0586103 49.8438 -1.65863e-05C20.8636 0.0605303 0 16.2051 0 34.375ZM50 18.75C37.4688 18.75 27.2727 25.7597 27.2727 34.375C27.2727 36.1015 25.2386 37.5 22.7273 37.5C20.2159 37.5 18.1818 36.1015 18.1818 34.375C18.1818 22.3125 32.4545 12.5 50 12.5C52.5114 12.5 54.5455 13.8984 54.5455 15.625C54.5455 17.3515 52.5114 18.75 50 18.75Z" fill="white"/>
</g>
<defs>
<clipPath id="clip0_8_18">
<rect width="100" height="100" fill="white"/>
</clipPath>
</defs>
</svg>
