<svg width="30" height="30" viewBox="0 0 30 30" fill="none" xmlns="http://www.w3.org/2000/svg">
<path d="M29.45 11.2832C28.9344 9.21406 27.9567 7.65384 25.8742 7.65384H23.189V10.8278C23.189 13.292 21.0998 15.3679 18.716 15.3679H11.5644C9.60912 15.3679 7.98863 17.0419 7.98863 19.0039V25.8206C7.98863 27.7625 9.67608 28.9009 11.5644 29.4567C13.8277 30.1196 16.004 30.2401 18.716 29.4567C20.5173 28.9344 22.2917 27.8831 22.2917 25.8206V23.0953H15.1469V22.1846H25.8742C27.9567 22.1846 28.7268 20.7315 29.45 18.5553C30.2 16.312 30.1665 14.1559 29.45 11.2832V11.2832ZM19.1646 24.91C19.9079 24.91 20.5106 25.5193 20.5106 26.2693C20.5106 27.0259 19.9079 27.6353 19.1646 27.6353C18.428 27.6353 17.8187 27.0193 17.8187 26.2693C17.8254 25.5126 18.428 24.91 19.1646 24.91ZM11.2363 14.4706H18.3879C20.3766 14.4706 21.9636 12.83 21.9636 10.8345V4.01111C21.9636 2.06921 20.3298 0.616137 18.3879 0.288023C15.9906 -0.107053 13.3858 -0.086964 11.2363 0.294719C8.20961 0.830415 7.66052 1.94868 7.66052 4.01781V6.74316H14.8188V7.65384H4.97534C2.89281 7.65384 1.07144 8.90603 0.502266 11.2832C-0.153963 14.0085 -0.180748 15.7094 0.502266 18.5553C1.01118 20.6713 2.22319 22.1846 4.30572 22.1846H6.76323V18.9169C6.76323 16.5531 8.80557 14.4706 11.2363 14.4706ZM10.7877 4.92179C10.0444 4.92179 9.44171 4.31244 9.44171 3.56246C9.44841 2.80579 10.0444 2.19644 10.7877 2.19644C11.5242 2.19644 12.1336 2.81249 12.1336 3.56246C12.1336 4.31244 11.5309 4.92179 10.7877 4.92179V4.92179Z" fill="#4584B6"/>
</svg>
